<svg xmlns="http://www.w3.org/2000/svg" viewBox="0 0 311.73 69.2"><defs><style>.cls-1,.cls-2{fill:#ed1c2a;}.cls-1{fill-rule:evenodd;}.cls-2{font-size:18.85px;font-family:Geometria-Medium, Geometria Medium;}.cls-3{letter-spacing:-0.01em;}.cls-4{letter-spacing:-0.01em;}.cls-5{letter-spacing:-0.01em;}.cls-6{letter-spacing:-0.01em;}.cls-7{letter-spacing:-0.01em;}.cls-8{letter-spacing:-0.01em;}.cls-9{letter-spacing:0em;}.cls-10{letter-spacing:-0.01em;}.cls-11{letter-spacing:-0.01em;}</style></defs><title>Ресурс 1</title><g id="Слой_2" data-name="Слой 2"><g id="Слой_1-2" data-name="Слой 1"><path class="cls-1" d="M201.18,0c0,.18,0,.36,0,.54V41.2a1.86,1.86,0,0,1-.06.77,2.46,2.46,0,0,1-.29.07h-8.23a1.15,1.15,0,0,1-.65-.1,6.74,6.74,0,0,1,0-1.27c0-.44,0-.87,0-1.3V16.31c0-.42,0-.85,0-1.27a16.91,16.91,0,0,0-1,1.9c-.31.65-.61,1.3-.91,1.95s-.62,1.29-.92,1.94-.61,1.3-.91,2l-.92,1.94c-.3.63-.59,1.27-.89,1.9l-.91,1.95c-.31.64-.61,1.29-.92,1.94l-.91,1.95c-.31.64-.61,1.29-.92,1.94s-.61,1.3-.92,2c-1.17,0-2.31,0-3.47,0-.42-.77-.75-1.56-1.12-2.34s-.74-1.59-1.11-2.38L175,29.31c-.36-.78-.73-1.56-1.09-2.33s-.75-1.6-1.12-2.39l-1.09-2.34-1.09-2.34c-.38-.79-.75-1.58-1.12-2.38s-.72-1.54-1.1-2.32l-.07.07a.13.13,0,0,0,0,.06v26.3s0,0,0,0v.05a.11.11,0,0,1,0,.06v.05a.08.08,0,0,1,0,0l0,.05a1,1,0,0,1-.62.1h-7.85a.87.87,0,0,1-.57-.1,1.55,1.55,0,0,1-.06-.64V.86c0-.29,0-.57,0-.86h10c.1.19.21.38.3.57l7.25,15.77,3.21,7a1.09,1.09,0,0,0,.28.47c.06-.11.12-.2.16-.29l1.22-2.64L190.87.55c.08-.18.14-.37.2-.55Z"/><path class="cls-1" d="M19.37,0a2.7,2.7,0,0,0,.41.08,17.74,17.74,0,0,1,5.43,1.2,12.68,12.68,0,0,1,4.61,3,9.37,9.37,0,0,1,2.52,4.61,10.4,10.4,0,0,1,.21,2.67A10.91,10.91,0,0,1,32,14.33a8.9,8.9,0,0,1-2.63,3.87A12.6,12.6,0,0,1,26.72,20l-.46.23c0,.14.08.13.14.16l.2.08a12.64,12.64,0,0,1,2.46,1.18,9.43,9.43,0,0,1,3.17,3.08,8.79,8.79,0,0,1,1.26,3.57A11.07,11.07,0,0,1,29,38.87a15.27,15.27,0,0,1-5.22,2.46,18.6,18.6,0,0,1-3.05.56,24.46,24.46,0,0,1-3.92.11l-.7,0c-.82,0-1.64-.11-2.46-.2a25.67,25.67,0,0,1-3.48-.64,20.6,20.6,0,0,1-9.23-5c-.24-.22-.46-.45-.7-.66A1,1,0,0,0,0,35.29v-.11c.19-.06.27-.23.38-.37l1.18-1.53c1-1.28,2-2.57,2.94-3.84.12-.15.2-.35.43-.41l.28.23c.27.24.53.48.81.71a17.59,17.59,0,0,0,9.13,4,20,20,0,0,0,3,.14,9.22,9.22,0,0,0,2-.23,7,7,0,0,0,2.5-1,4.12,4.12,0,0,0,1.88-3.06,3.79,3.79,0,0,0-1.1-3.24,5.17,5.17,0,0,0-1.52-1,10.58,10.58,0,0,0-3.58-.84c-1.06-.07-2.12-.07-3.18-.09H12.44a.89.89,0,0,1-.53-.07c-.12-.17-.07-.37-.08-.56V17.59c0-.16,0-.32.14-.49h.55c1.24,0,2.47,0,3.71,0a15.5,15.5,0,0,0,2.89-.22A7.48,7.48,0,0,0,21.69,16,3.78,3.78,0,0,0,23.6,13.2a3.82,3.82,0,0,0-1.52-3.89,5.92,5.92,0,0,0-1-.58A7.42,7.42,0,0,0,18.16,8a17.4,17.4,0,0,0-4.55.29A13.54,13.54,0,0,0,9,10.16a16.34,16.34,0,0,0-2.39,1.92c-.11.11-.19.26-.43.28A2.53,2.53,0,0,0,6,12.14L1.71,7c-.07-.09-.13-.2-.2-.3a1.89,1.89,0,0,1,.14-.19c.44-.43.87-.86,1.33-1.27A19.57,19.57,0,0,1,11.12.82a21.74,21.74,0,0,1,4.6-.74A3.1,3.1,0,0,0,16.14,0Z"/><path class="cls-1" d="M269.83,42a1.86,1.86,0,0,1-.28,0H263.9a1.2,1.2,0,0,1-.23,0,1.18,1.18,0,0,1-.07-.3c0-.18,0-.36,0-.54V29.8c0-.19,0-.39,0-.63a.93.93,0,0,0-.35.37q-2,3-4,5.9l-4.1,6.12c-.32.49-.23.49-.9.49h-4.84a1.44,1.44,0,0,1-.61-.07,1,1,0,0,1-.07-.29,4,4,0,0,1,0-.49v-21c0-.24,0-.49,0-.76a1.18,1.18,0,0,1,.28-.06h5.7a1.11,1.11,0,0,1,.23,0c0,.1.06.2.07.3s0,.36,0,.54V31.52a2.21,2.21,0,0,0,0,.63c.17,0,.2-.09.25-.17l1.77-2.64,6.33-9.48c.1-.16.22-.32.31-.46.49-.07,5.59-.07,6.07,0a1.82,1.82,0,0,1,.07.25c0,.18,0,.36,0,.54v21A1.84,1.84,0,0,1,269.83,42Z"/><path class="cls-1" d="M277.83,33.71l-.54-.25a7.55,7.55,0,0,1-2.09-1.39,6.47,6.47,0,0,1-2-3.91,8.27,8.27,0,0,1,.16-3.25,6.6,6.6,0,0,1,3.14-4.19,9.38,9.38,0,0,1,3.16-1.15,14.62,14.62,0,0,1,2.72-.23h11.14a1.82,1.82,0,0,1,.65,0,1.87,1.87,0,0,1,0,.32c0,.14,0,.29,0,.43V41.23c0,.23,0,.46,0,.71a1.89,1.89,0,0,1-.32.1,2.38,2.38,0,0,1-.38,0h-5.11a1,1,0,0,1-.62-.09,1.16,1.16,0,0,1-.06-.58c0-2,0-4,0-6a1.36,1.36,0,0,0,0-.57,22.16,22.16,0,0,0-3.33-.05c-.1.14-.22.29-.32.45L280,41.49c-.4.6-.29.56-1,.56h-6.08a1.45,1.45,0,0,1-.67-.08,2,2,0,0,1,.11-.25c.07-.12.16-.24.24-.36l5-7.15C277.6,34.07,277.7,33.92,277.83,33.71Zm9.87-9.23-.23,0c-1.49,0-3,0-4.47,0a4.36,4.36,0,0,0-1.66.37,2.43,2.43,0,0,0-1.57,2,2.54,2.54,0,0,0,1.47,2.79,3.37,3.37,0,0,0,1.39.36c1.59,0,3.19,0,4.78.05a1.15,1.15,0,0,0,.28-.06C287.77,29.5,287.78,25,287.7,24.48Z"/><path class="cls-1" d="M48.21,42a13,13,0,0,1-5.82-1.27A11.25,11.25,0,0,1,36,32.32,11.31,11.31,0,0,1,38.34,23a11.68,11.68,0,0,1,6.49-4.15,12.52,12.52,0,0,1,3.5-.42,12.65,12.65,0,0,1,6.21,1.68,11.26,11.26,0,0,1,5.63,8.05,11.37,11.37,0,0,1-2.1,9.05,11.84,11.84,0,0,1-6.77,4.47A14.6,14.6,0,0,1,48.21,42Zm5.72-12a6.46,6.46,0,0,0-.26-1.72,5.82,5.82,0,0,0-6.91-4.18,5.26,5.26,0,0,0-3.93,3.19,6.78,6.78,0,0,0-.4,4.46,5.81,5.81,0,0,0,6.88,4.52,5.27,5.27,0,0,0,3.92-3A6.93,6.93,0,0,0,53.93,30.05Z"/><path class="cls-1" d="M98.62,42a12.56,12.56,0,0,1-5.46-1.19,11.32,11.32,0,0,1-6.59-8.72,11.32,11.32,0,0,1,2.55-9.39,11.75,11.75,0,0,1,6.28-3.92,13.08,13.08,0,0,1,10.71,1.88,11.13,11.13,0,0,1,4.62,7.24,11.41,11.41,0,0,1-2.88,10.21,11.73,11.73,0,0,1-6,3.5A13.1,13.1,0,0,1,98.62,42Zm5.92-11.66a6.75,6.75,0,0,0-.32-2.21,5.81,5.81,0,0,0-6.88-4,5.3,5.3,0,0,0-3.92,3.2A6.8,6.8,0,0,0,93,31.66a5.82,5.82,0,0,0,6.93,4.65,5.25,5.25,0,0,0,3.87-2.87A7,7,0,0,0,104.54,30.38Z"/><path class="cls-1" d="M143.28,42.06a12.69,12.69,0,0,1-7.36-2.33,11.1,11.1,0,0,1-4.65-7.4,11.69,11.69,0,0,1,8.45-13.41,14.2,14.2,0,0,1,2.59-.46,12.6,12.6,0,0,1,7.16,1.43,11.16,11.16,0,0,1,6,8.22,11.64,11.64,0,0,1-7.63,13.15,12.07,12.07,0,0,1-3.56.73C143.93,42,143.61,42,143.28,42.06Zm5.93-11.87a5.67,5.67,0,0,0-.25-1.8A5.82,5.82,0,0,0,142,24.15a5.29,5.29,0,0,0-4,3.28,7,7,0,0,0-.41,4.21,6.39,6.39,0,0,0,.73,1.89,5.78,5.78,0,0,0,6.3,2.77,5.37,5.37,0,0,0,4.08-3.53A6.87,6.87,0,0,0,149.21,30.19Z"/><path class="cls-1" d="M60.56,41.61c0-.31,0-.59,0-.88.11-1.39.24-2.78.36-4.17,0,0,0-.06.07-.12.32,0,.65,0,1,0h.8a1.86,1.86,0,0,0,1.42-.77,4.15,4.15,0,0,0,.55-1,12.17,12.17,0,0,0,.53-2.14,45.18,45.18,0,0,0,.46-4.65c.14-2.72.19-5.44.19-8.17,0-.17,0-.35,0-.53a1.26,1.26,0,0,1,.28-.07H83.39a2.5,2.5,0,0,1,.76.05c0,.11,0,.22.06.32V40.91a2,2,0,0,1-.07.8.44.44,0,0,1-.15,0H78a1,1,0,0,1-.22-.06,1.7,1.7,0,0,1-.06-.31c0-.18,0-.36,0-.54,0-5.14,0-10.29,0-15.43,0-.23,0-.46,0-.71a1.75,1.75,0,0,0-.34-.06h-5l-.19,0c-.14.12-.11.27-.12.41,0,.85,0,1.69-.06,2.53,0,1.5-.1,3-.26,4.5a23.67,23.67,0,0,1-.93,5,12,12,0,0,1-.72,1.74,5.42,5.42,0,0,1-4.24,3,12.56,12.56,0,0,1-2.74.12c-.69,0-1.38-.12-2.07-.23A1.29,1.29,0,0,1,60.56,41.61Z"/><path class="cls-1" d="M225.82,42a.87.87,0,0,1,0-.19q0-11.1,0-22.21a.56.56,0,0,1,.07-.17,1.9,1.9,0,0,1,.25,0c1-.05,5.67,0,6.1,0a2.46,2.46,0,0,1,.07.29c0,.16,0,.32,0,.48v7.15c0,.22,0,.43,0,.67a3.4,3.4,0,0,0,.39.06h7l.29,0a1.63,1.63,0,0,0,.07-.3,3.85,3.85,0,0,0,0-.48V20.08a1.31,1.31,0,0,1,.08-.68c.43-.07,5.86-.08,6.38,0,0,.11.05.23.06.35a2.32,2.32,0,0,1,0,.37V41.25a2.13,2.13,0,0,1,0,.67.62.62,0,0,1-.48.13h-5.32l-.6,0a3.09,3.09,0,0,1-.08-.33c0-.18,0-.36,0-.54v-7c0-.22,0-.43,0-.61-.17-.17-.34-.12-.5-.12h-7.18c0,.13-.06.25-.07.37,0,.37,0,.75,0,1.13v6.4c0,.21,0,.42,0,.66-.11,0-.21.08-.31.1a2.38,2.38,0,0,1-.38,0h-5.1A1.06,1.06,0,0,1,225.82,42Z"/><path class="cls-1" d="M217.2,39.37c-.18.15-.28.22-.37.31a8.3,8.3,0,0,1-4.57,2.21,10.3,10.3,0,0,1-4.93-.35,7,7,0,0,1-2.54-1.47,6.35,6.35,0,0,1-2-3.82,8.23,8.23,0,0,1,.1-3.09,6.09,6.09,0,0,1,2.91-4,9,9,0,0,1,2.74-1.07,15.73,15.73,0,0,1,4.54-.3,14.49,14.49,0,0,1,3.68.69l.41.12h.06c.1,0,.08-.14.09-.23a4.46,4.46,0,0,0-.24-1.58,3.23,3.23,0,0,0-1.54-1.86,4.71,4.71,0,0,0-1.67-.56,11.24,11.24,0,0,0-2.78,0,16.93,16.93,0,0,0-4.28,1l-.41.13-.13,0a.69.69,0,0,1-.1-.17q-.77-2.31-1.53-4.66a1.76,1.76,0,0,1,.23-.15A19.58,19.58,0,0,1,209.19,19a22.93,22.93,0,0,1,5.67-.3,11.08,11.08,0,0,1,3.8.87A7.48,7.48,0,0,1,223,24.54a12.19,12.19,0,0,1,.46,2.48c.07.71.08,1.43.08,2.14,0,3.89,0,7.79,0,11.68a1.74,1.74,0,0,1-.05.68c-.17.16-.37.11-.57.11h-5.05l-.57,0a3.84,3.84,0,0,1-.06-.44c0-.43,0-.86,0-1.29C217.25,39.74,217.23,39.61,217.2,39.37Zm.19-6.79c-.08-.08-.1-.12-.13-.13l-.34-.16a9.72,9.72,0,0,0-5-.51,4.06,4.06,0,0,0-1.65.6A2.75,2.75,0,0,0,209,35.09a2.26,2.26,0,0,0,.76,1.56,2.77,2.77,0,0,0,.91.56,5.22,5.22,0,0,0,1.57.32,5.8,5.8,0,0,0,1.44-.12,4.85,4.85,0,0,0,2.43-1.06,3.47,3.47,0,0,0,1.25-2.18A10.65,10.65,0,0,0,217.39,32.58Z"/><path class="cls-1" d="M130.83,19.36a37.88,37.88,0,0,1,.09,5c0,.15,0,.31,0,.45a1.07,1.07,0,0,1-.62.08h-6a1.57,1.57,0,0,0-.09.32c0,.18,0,.36,0,.54V41.25c0,.23,0,.46,0,.71a2.26,2.26,0,0,1-.39.08h-5.48a1.29,1.29,0,0,1-.66-.09c0-.09,0-.19-.05-.3s0-.36,0-.54q0-7.74,0-15.48a1.51,1.51,0,0,0,0-.67,1.13,1.13,0,0,0-.6-.07h-5.37l-.6,0a1.75,1.75,0,0,1-.06-.34c0-1.62,0-3.23,0-4.84,0-.09,0-.18,0-.29l.31-.06h19Z"/><path class="cls-1" d="M311.73,12.8c-.66,0-1.31,0-1.94,0a.36.36,0,0,1-.06-.45,2.52,2.52,0,0,1,1-.07c.33,0,.67,0,1,0Z"/><path class="cls-1" d="M305.2,16.84a4.25,4.25,0,0,1-4.3-4.3,4.31,4.31,0,0,1,4.33-4.29,4.36,4.36,0,0,1,4.28,4.34A4.31,4.31,0,0,1,305.2,16.84Zm-.05-.5a3.79,3.79,0,1,0,.05-7.58,3.79,3.79,0,0,0-.05,7.58Z"/><path class="cls-1" d="M305,19.24a.33.33,0,0,1-.06-.12c0-.6,0-1.2,0-1.81,0-.14.11-.2.27-.2a.24.24,0,0,1,.23.19.77.77,0,0,1,0,.15c0,.52,0,1,0,1.55a1.48,1.48,0,0,1,0,.24Z"/><path class="cls-1" d="M298.61,12.75c0-.1,0-.17,0-.24a.58.58,0,0,1,.05-.16.73.73,0,0,1,.2,0h1.6a.47.47,0,0,1,.2.06c.11.06.11.17.09.28a.18.18,0,0,1-.17.17A13,13,0,0,1,298.61,12.75Z"/><path class="cls-1" d="M305.38,8.05H305c0-.09-.06-.17-.07-.25,0-.52,0-1,0-1.55,0-.33.06-.36.45-.28A5.82,5.82,0,0,1,305.38,8.05Z"/><path class="cls-1" d="M302.83,6.4c.05.08.11.15.15.22.21.46.43.91.64,1.36s.09.39-.35.43a1.05,1.05,0,0,1-.12-.21c-.25-.52-.49-1-.72-1.53C302.49,6.44,302.65,6.42,302.83,6.4Z"/><path class="cls-1" d="M298.92,15a1,1,0,0,1,.23-.13l1.43-.59c.31-.12.35-.09.45.32a3.14,3.14,0,0,1-.31.18c-.53.19-1,.46-1.61.61C299,15.22,299,15.11,298.92,15Z"/><path class="cls-1" d="M300.2,8.11l.29-.32A7.25,7.25,0,0,1,302,9.23l-.25.27a3.05,3.05,0,0,1-.83-.67C300.71,8.61,300.47,8.36,300.2,8.11Z"/><path class="cls-1" d="M308.06,18.55l-.34.16a6.19,6.19,0,0,1-.94-1.9l.35-.17A7.72,7.72,0,0,1,308.06,18.55Z"/><path class="cls-1" d="M301.14,10.54c-.05.13-.09.24-.12.34s-.1,0-.13,0a17,17,0,0,1-1.81-.71c-.08-.21,0-.3.09-.41A7.86,7.86,0,0,1,301.14,10.54Z"/><path class="cls-1" d="M307.19,8.48l-.41-.19a4.58,4.58,0,0,1,.41-1,4.51,4.51,0,0,1,.48-.92l.41.18A20.58,20.58,0,0,1,307.19,8.48Z"/><path class="cls-1" d="M303.59,16.83a7.21,7.21,0,0,1-.89,1.88l-.23-.1a.17.17,0,0,1-.1-.22c.06-.15.13-.29.2-.44.15-.34.31-.68.47-1S303.25,16.59,303.59,16.83Z"/><path class="cls-1" d="M310.3,17c-.14.15-.24.24-.33.33a8.21,8.21,0,0,1-1.52-1.46l.24-.28a3.38,3.38,0,0,1,.82.67C309.77,16.47,310,16.71,310.3,17Z"/><path class="cls-1" d="M309.36,14.56a.66.66,0,0,1,0-.18c.09-.19.17-.23.33-.18l.35.14,1.13.47c.3.12.3.19.07.51A9.56,9.56,0,0,1,309.36,14.56Z"/><path class="cls-1" d="M310,7.78l.26.29a9,9,0,0,1-1.53,1.43l-.27-.25A6.45,6.45,0,0,1,310,7.78Z"/><path class="cls-1" d="M301.65,15.56l.31.3a9.3,9.3,0,0,1-1.48,1.44s-.08,0-.1,0a2.66,2.66,0,0,1-.23-.24,3.4,3.4,0,0,1,.73-.78C301.12,16,301.38,15.81,301.65,15.56Z"/><path class="cls-1" d="M309.52,10.91a.91.91,0,0,1-.11-.16c-.08-.16-.06-.25.08-.31l1.58-.64c.19-.07.29,0,.35.21a.76.76,0,0,1,0,.15A9.29,9.29,0,0,1,309.52,10.91Z"/><path class="cls-1" d="M304.25,12.82c-.12.62,0,1.2-.1,1.75a.65.65,0,0,1-.56,0c0-.1,0-.2,0-.3V10.82c0-.11,0-.21,0-.34a2.21,2.21,0,0,1,.32-.06h1.77a2.47,2.47,0,0,1,.53.1,1,1,0,0,1,.73.89,1,1,0,0,1-.47,1.12c-.13.08-.28.14-.46.23a8.59,8.59,0,0,1,1.24,1.82,1.11,1.11,0,0,1-.72,0c-.16-.25-.33-.5-.5-.75s-.29-.45-.45-.67a.85.85,0,0,0-.78-.38Zm0-.59a11.21,11.21,0,0,0,1.42,0,.71.71,0,0,0,.3-.1.51.51,0,0,0,.29-.41.57.57,0,0,0-.53-.72c-.39,0-.78,0-1.17,0l-.31.06A3.65,3.65,0,0,0,304.24,12.23Z"/><text class="cls-2" transform="translate(53.18 64.49)"><tspan class="cls-3">п</tspan><tspan class="cls-4" x="10.04" y="0">е</tspan><tspan class="cls-5" x="19.25" y="0">рв</tspan><tspan class="cls-6" x="39.05" y="0">ы</tspan><tspan x="51.36" y="0">й </tspan><tspan class="cls-7" x="65.8" y="0">ю</tspan><tspan class="cls-8" x="78.93" y="0">в</tspan><tspan class="cls-9" x="88.22" y="0">е</tspan><tspan class="cls-10" x="97.67" y="0">ли</tspan><tspan class="cls-11" x="117.18" y="0">р</tspan><tspan class="cls-10" x="127.77" y="0">н</tspan><tspan class="cls-6" x="137.82" y="0">ы</tspan><tspan x="150.12" y="0">й</tspan></text></g></g></svg>