<svg xmlns="http://www.w3.org/2000/svg" viewBox="0 0 691.47 153.55"><defs><style>.cls-1{fill:#d24a46;fill-rule:evenodd;}.cls-2{font-size:41.82px;fill:#201600;font-family:Geometria-Medium, Geometria;letter-spacing:0.01em;}.cls-3{letter-spacing:0em;}.cls-4{letter-spacing:0.01em;}.cls-5{letter-spacing:0em;}.cls-6{letter-spacing:0em;}.cls-7{letter-spacing:0em;}.cls-8{letter-spacing:0.01em;}.cls-9{letter-spacing:0em;}.cls-10{letter-spacing:0em;}.cls-11{letter-spacing:0.01em;}.cls-12{letter-spacing:0em;}</style></defs><title>logo</title><g id="Слой_2" data-name="Слой 2"><g id="Слой_1-2" data-name="Слой 1"><path class="cls-1" d="M446.25,0c0,.4,0,.8,0,1.19q0,45.11,0,90.2a4.15,4.15,0,0,1-.14,1.7c-.21,0-.43.13-.65.16a5.77,5.77,0,0,1-.72,0H427.19a2.56,2.56,0,0,1-1.43-.2,16.82,16.82,0,0,1-.08-2.84c0-1,0-1.91,0-2.86V36.17c0-.93,0-1.87-.09-2.82a39,39,0,0,0-2.14,4.23c-.69,1.43-1.34,2.87-2,4.31l-2,4.32q-1,2.15-2,4.31t-2,4.32q-1,2.1-2,4.21t-2,4.31l-2,4.32c-.67,1.44-1.35,2.87-2,4.31l-2,4.32c-.67,1.43-1.35,2.86-2.05,4.34-2.59.09-5.12.06-7.69,0-.92-1.71-1.66-3.47-2.49-5.19s-1.64-3.52-2.47-5.29-1.62-3.45-2.43-5.18l-2.43-5.18-2.47-5.29c-.81-1.73-1.61-3.46-2.42-5.18l-2.43-5.18q-1.23-2.66-2.48-5.29c-.8-1.71-1.58-3.43-2.43-5.16l-.16.17a.25.25,0,0,0,0,.12.49.49,0,0,0,0,.12V92.48s0,.08,0,.12v.12a.49.49,0,0,1,0,.12,1.17,1.17,0,0,0-.05.11.41.41,0,0,1-.06.11,2.16,2.16,0,0,1-1.37.2H354.33a1.9,1.9,0,0,1-1.26-.21,3.28,3.28,0,0,1-.13-1.42V1.91c0-.64,0-1.27,0-1.91h22.19c.22.42.46.83.66,1.26l16.08,35Q395.45,44,399,51.72a2.29,2.29,0,0,0,.62,1.05c.13-.24.25-.44.35-.65q1.35-2.92,2.69-5.85Q413,23.74,423.38,1.22A12.63,12.63,0,0,0,423.82,0Z"/><path class="cls-1" d="M43,0a7.1,7.1,0,0,0,.92.17,39.45,39.45,0,0,1,12,2.67A28.35,28.35,0,0,1,66.16,9.45a20.94,20.94,0,0,1,5.58,10.22,21.84,21.84,0,0,1,.45,5.93,22.54,22.54,0,0,1-1.13,6.19,19.57,19.57,0,0,1-5.83,8.58,27.77,27.77,0,0,1-6,3.9c-.35.17-.69.35-1,.52,0,.31.18.27.3.34a2.89,2.89,0,0,0,.44.18,29.15,29.15,0,0,1,5.46,2.62,21.22,21.22,0,0,1,7,6.84,19.6,19.6,0,0,1,2.8,7.91,24.59,24.59,0,0,1-9.89,23.54,33.38,33.38,0,0,1-11.56,5.45,42.27,42.27,0,0,1-6.79,1.25,52.53,52.53,0,0,1-8.69.25c-.51,0-1,0-1.54,0-1.83,0-3.65-.24-5.46-.45a59.22,59.22,0,0,1-7.72-1.41A45.85,45.85,0,0,1,2.17,80.06c-.52-.49-1-1-1.56-1.48A2.33,2.33,0,0,0,0,78.27V78c.42-.12.6-.5.84-.81.88-1.13,1.74-2.27,2.62-3.41Q6.72,69.55,10,65.29c.25-.33.44-.75.94-.91.21.18.43.34.64.53.59.52,1.17,1.07,1.78,1.58A39.14,39.14,0,0,0,33.6,75.34a47.84,47.84,0,0,0,6.66.31,21.1,21.1,0,0,0,4.49-.52,15.74,15.74,0,0,0,5.57-2.34A9.14,9.14,0,0,0,54.48,66,8.43,8.43,0,0,0,52,58.82a11.37,11.37,0,0,0-3.37-2.23,23,23,0,0,0-8-1.87c-2.34-.16-4.69-.16-7-.2-2,0-4.05,0-6.08,0a2.1,2.1,0,0,1-1.18-.15,2,2,0,0,1-.17-1.26c0-3,0-6.05,0-9.07,0-1.67,0-3.34,0-5a1.27,1.27,0,0,1,.3-1.09c.36,0,.79,0,1.22,0,2.75,0,5.49,0,8.24,0a35.18,35.18,0,0,0,6.4-.49,16.19,16.19,0,0,0,5.71-2,8.43,8.43,0,0,0,4.24-6.17A8.52,8.52,0,0,0,49,20.64a13.7,13.7,0,0,0-2.15-1.28,16.77,16.77,0,0,0-6.55-1.62,39.22,39.22,0,0,0-10.08.65,29.77,29.77,0,0,0-10.33,4.15,34.88,34.88,0,0,0-5.29,4.26c-.24.24-.44.58-.95.61l-.41-.49L3.8,15.51c-.17-.21-.3-.44-.46-.67a5.15,5.15,0,0,1,.33-.43c1-.94,1.93-1.9,2.93-2.8A43.56,43.56,0,0,1,24.66,1.82,48.34,48.34,0,0,1,34.87.17,7.58,7.58,0,0,0,35.8,0Z"/><path class="cls-1" d="M598.52,93.15a4.27,4.27,0,0,1-.63.1c-4.17,0-8.35,0-12.52,0a2.52,2.52,0,0,1-.52-.12,3.82,3.82,0,0,1-.15-.67c0-.39,0-.79,0-1.19V66.1c0-.43,0-.86,0-1.39a1.84,1.84,0,0,0-.76.82l-8.76,13.09Q570.59,85.4,566,92.19c-.72,1.07-.53,1.08-2,1.08H553.28a3.23,3.23,0,0,1-1.35-.16,4.13,4.13,0,0,1-.15-.65c0-.35,0-.71,0-1.07q0-23.33,0-46.64c0-.55,0-1.1.06-1.7a3,3,0,0,1,.62-.13c4.21,0,8.43,0,12.65,0a2.57,2.57,0,0,1,.5.08,4.39,4.39,0,0,1,.17.67c0,.4,0,.8,0,1.2V69.92a4.61,4.61,0,0,0,.08,1.39c.37.09.44-.2.55-.38,1.31-1.94,2.61-3.9,3.92-5.85l14-21c.24-.36.5-.71.71-1,1.08-.16,12.4-.16,13.46,0a3.05,3.05,0,0,1,.14.54c0,.4,0,.79,0,1.19q0,23.32,0,46.65A4.16,4.16,0,0,1,598.52,93.15Z"/><path class="cls-1" d="M616.27,74.78l-1.2-.56a17.22,17.22,0,0,1-4.65-3.09,14.46,14.46,0,0,1-4.34-8.67,18.48,18.48,0,0,1,.36-7.22,14.61,14.61,0,0,1,7-9.28,20.75,20.75,0,0,1,7-2.55,31.42,31.42,0,0,1,6.05-.51q12.35,0,24.69,0a3.89,3.89,0,0,1,1.46.13,5.83,5.83,0,0,1,.09.7c0,.31,0,.63,0,.95V91.46c0,.51,0,1,0,1.57a4.24,4.24,0,0,1-.7.22,7.85,7.85,0,0,1-.84,0H639.81a2.37,2.37,0,0,1-1.39-.18,2.63,2.63,0,0,1-.13-1.3c0-4.41,0-8.82,0-13.24a3.12,3.12,0,0,0-.1-1.26,51,51,0,0,0-7.39-.11c-.21.3-.47.65-.7,1L621,92c-.88,1.34-.64,1.23-2.29,1.24H605.22a3.3,3.3,0,0,1-1.47-.16,3.8,3.8,0,0,1,.23-.56c.16-.27.35-.53.53-.79l11-15.86ZM638.16,54.3a4.16,4.16,0,0,0-.52-.08c-3.29,0-6.6,0-9.89,0a9.56,9.56,0,0,0-3.71.81,5.42,5.42,0,0,0-3.46,4.49,5.6,5.6,0,0,0,3.24,6.17,7.68,7.68,0,0,0,3.09.82c3.54.07,7.07.08,10.61.1a3.05,3.05,0,0,0,.63-.14C638.32,65.44,638.33,55.47,638.16,54.3Z"/><path class="cls-1" d="M106.93,93.25A28.62,28.62,0,0,1,94,90.44C86.25,86.52,81.41,80.3,79.87,71.68A25.13,25.13,0,0,1,85,51a26,26,0,0,1,14.39-9.21,28.41,28.41,0,0,1,7.79-.93A28,28,0,0,1,121,44.53a25,25,0,0,1,12.5,17.86,25.27,25.27,0,0,1-4.66,20.08,26.25,26.25,0,0,1-15,9.91A31.82,31.82,0,0,1,106.93,93.25Zm12.7-26.59a14.83,14.83,0,0,0-.58-3.82,12.89,12.89,0,0,0-15.33-9.27A11.66,11.66,0,0,0,95,60.64a15,15,0,0,0-.9,9.9,12.9,12.9,0,0,0,15.27,10,11.73,11.73,0,0,0,8.7-6.57A15.67,15.67,0,0,0,119.63,66.66Z"/><path class="cls-1" d="M218.76,93.26a28.14,28.14,0,0,1-12.12-2.65c-8.14-4-13.14-10.37-14.61-19.34a25.1,25.1,0,0,1,5.66-20.83,26,26,0,0,1,13.92-8.69,28.07,28.07,0,0,1,7.9-.94,27.78,27.78,0,0,1,15.85,5.11A24.72,24.72,0,0,1,245.62,62a25.34,25.34,0,0,1-6.38,22.64A26,26,0,0,1,226,92.38,30.08,30.08,0,0,1,218.76,93.26ZM231.9,67.38a15.31,15.31,0,0,0-.73-4.9,12.88,12.88,0,0,0-15.24-8.91,11.74,11.74,0,0,0-8.71,7.09,15.06,15.06,0,0,0-1,9.56c1.55,7.13,7.79,11.72,15.38,10.33a11.72,11.72,0,0,0,8.57-6.38A15.59,15.59,0,0,0,231.9,67.38Z"/><path class="cls-1" d="M317.83,93.29a28.07,28.07,0,0,1-16.34-5.15,24.81,24.81,0,0,1-10.32-16.43A25.94,25.94,0,0,1,309.93,42a29.9,29.9,0,0,1,5.73-1,27.75,27.75,0,0,1,15.88,3.17A24.78,24.78,0,0,1,344.8,62.36a25.81,25.81,0,0,1-16.94,29.16,26.41,26.41,0,0,1-7.9,1.62C319.25,93.17,318.54,93.24,317.83,93.29ZM331,67a12.42,12.42,0,0,0-.54-4,12.92,12.92,0,0,0-15.36-9.42,11.74,11.74,0,0,0-8.82,7.27,15.38,15.38,0,0,0-.91,9.35,13.87,13.87,0,0,0,1.62,4.2,12.8,12.8,0,0,0,14,6.13A11.88,11.88,0,0,0,330,72.69,14.82,14.82,0,0,0,331,67Z"/><path class="cls-1" d="M134.33,92.29c0-.68,0-1.32,0-1.94.24-3.09.52-6.18.79-9.26,0-.07.08-.13.16-.26.7-.07,1.45.07,2.19.07s1.19,0,1.79,0a4,4,0,0,0,3.13-1.7,8.82,8.82,0,0,0,1.22-2.31,24.8,24.8,0,0,0,1.18-4.73,96.45,96.45,0,0,0,1-10.31c.33-6,.44-12.08.44-18.12,0-.39,0-.79,0-1.2a4.37,4.37,0,0,1,.64-.15c.39,0,.79,0,1.19,0H185a5.31,5.31,0,0,1,1.71.13,5.81,5.81,0,0,1,.11.69c0,.36,0,.71,0,1.07q0,23.27,0,46.52a4.21,4.21,0,0,1-.15,1.76,1.26,1.26,0,0,1-.34.12H172.94a2.77,2.77,0,0,1-.49-.11,6.42,6.42,0,0,1-.12-.7c0-.4,0-.8,0-1.2q0-17.11,0-34.22c0-.52,0-1,0-1.58a4.13,4.13,0,0,0-.74-.13q-5.49,0-11,0a2.68,2.68,0,0,0-.43,0c-.32.26-.25.6-.26.91-.05,1.87-.12,3.73-.13,5.6,0,3.34-.24,6.68-.57,10a53.81,53.81,0,0,1-2.09,11.1,24,24,0,0,1-1.58,3.85,12.06,12.06,0,0,1-9.42,6.69,28.54,28.54,0,0,1-6.06.27c-1.55-.1-3.08-.28-4.61-.53A2.6,2.6,0,0,1,134.33,92.29Z"/><path class="cls-1" d="M500.91,93.06a1.51,1.51,0,0,1-.11-.43q0-24.63,0-49.26A1.39,1.39,0,0,1,501,43a3.43,3.43,0,0,1,.56-.07c2.31-.1,12.58,0,13.53.09a4.28,4.28,0,0,1,.16.64c0,.36,0,.72,0,1.07,0,5.29,0,10.58,0,15.87,0,.47,0,.95,0,1.47a5.1,5.1,0,0,0,.86.14h15.51c.19,0,.38,0,.64-.06a4.39,4.39,0,0,0,.17-.67c0-.36,0-.72,0-1.07q0-7.93,0-15.87a2.94,2.94,0,0,1,.17-1.5c1-.16,13-.17,14.14,0,.05.24.12.5.15.76a7.85,7.85,0,0,1,0,.84V91.5a4.51,4.51,0,0,1-.1,1.48,1.22,1.22,0,0,1-1,.28H534l-1.33-.06a3.58,3.58,0,0,1-.18-.74c0-.39,0-.79,0-1.19V75.65c0-.47,0-.94,0-1.34-.37-.37-.74-.27-1.09-.27-2.74,0-5.48,0-8.23,0H515.4a4.62,4.62,0,0,0-.17.82c0,.83,0,1.67,0,2.5,0,4.73,0,9.46,0,14.2,0,.47,0,.94,0,1.46a5.06,5.06,0,0,1-.69.23,5.72,5.72,0,0,1-.83,0H502.34A2.39,2.39,0,0,1,500.91,93.06Z"/><path class="cls-1" d="M481.79,87.32c-.41.34-.62.51-.82.7a18.55,18.55,0,0,1-10.14,4.9,23.05,23.05,0,0,1-10.94-.78,15.79,15.79,0,0,1-5.64-3.25,14,14,0,0,1-4.47-8.47,18.05,18.05,0,0,1,.22-6.87,13.52,13.52,0,0,1,6.45-8.92,20.35,20.35,0,0,1,6.07-2.37,34.83,34.83,0,0,1,10.08-.67,32.52,32.52,0,0,1,8.16,1.55c.3.1.61.17.92.25,0,0,.07,0,.13,0,.22-.1.18-.32.19-.5a9.77,9.77,0,0,0-.52-3.52,7.27,7.27,0,0,0-3.41-4.13A10.7,10.7,0,0,0,474.36,54a26.61,26.61,0,0,0-6.18-.09,38,38,0,0,0-9.49,2.17c-.3.11-.6.19-.91.27-.07,0-.15,0-.28,0a1.31,1.31,0,0,1-.23-.36c-1.13-3.43-2.25-6.86-3.39-10.34a3.91,3.91,0,0,1,.51-.35A44.5,44.5,0,0,1,464,42.19a51.6,51.6,0,0,1,12.59-.67A24.84,24.84,0,0,1,485,43.46a16.59,16.59,0,0,1,9.68,11,27,27,0,0,1,1,5.5c.14,1.58.16,3.17.16,4.76V90.58a4.31,4.31,0,0,1-.11,1.52c-.39.35-.84.24-1.27.24H483.31c-.4,0-.79,0-1.25,0a8.23,8.23,0,0,1-.14-1c0-.95,0-1.91,0-2.86C481.9,88.15,481.84,87.85,481.79,87.32Zm.41-15c-.17-.2-.21-.28-.28-.31-.25-.12-.5-.24-.76-.34a21.7,21.7,0,0,0-11.11-1.15,9.43,9.43,0,0,0-3.67,1.35,6.12,6.12,0,0,0-2.83,6,5.09,5.09,0,0,0,1.68,3.45,6.79,6.79,0,0,0,2,1.24,11.52,11.52,0,0,0,3.48.7,14.26,14.26,0,0,0,3.2-.25,11.06,11.06,0,0,0,5.39-2.35,7.82,7.82,0,0,0,2.77-4.85A24.49,24.49,0,0,0,482.2,72.28Z"/><path class="cls-1" d="M290.2,42.94A82,82,0,0,1,290.39,54c0,.35-.06.7-.09,1a2.33,2.33,0,0,1-1.37.19H277l-1.34,0a4,4,0,0,0-.19.71c0,.4,0,.79,0,1.19V91.49c0,.52,0,1,0,1.59a4.8,4.8,0,0,1-.86.17c-.87,0-1.75,0-2.62,0h-9.54a3.07,3.07,0,0,1-1.45-.17,4,4,0,0,1-.12-.68c0-.39,0-.79,0-1.19q0-17.18,0-34.34a3.43,3.43,0,0,0-.12-1.5,2.44,2.44,0,0,0-1.32-.16H247.47c-.43,0-.86,0-1.33,0a4.94,4.94,0,0,1-.13-.75q0-5.36,0-10.73a6.18,6.18,0,0,1,.07-.64,6.21,6.21,0,0,1,.68-.13,5.77,5.77,0,0,1,.72,0h41.38Z"/><path class="cls-1" d="M691.47,28.4c-1.46.05-2.92,0-4.32,0a.8.8,0,0,1-.13-1,6,6,0,0,1,2.19-.17c.75,0,1.5,0,2.26,0Z"/><path class="cls-1" d="M677,37.35a9.52,9.52,0,1,1,.06-19,9.65,9.65,0,0,1,9.49,9.62A9.55,9.55,0,0,1,677,37.35Zm-.11-1.11a8.41,8.41,0,1,0-8.3-8.5A8.41,8.41,0,0,0,676.87,36.24Z"/><path class="cls-1" d="M676.58,42.67c-.06-.12-.13-.18-.13-.25,0-1.34,0-2.68,0-4,0-.3.25-.45.59-.43a.5.5,0,0,1,.51.4,2,2,0,0,1,0,.35c0,1.14,0,2.28,0,3.43a2.85,2.85,0,0,1-.12.52Z"/><path class="cls-1" d="M662.36,28.27a3.56,3.56,0,0,1,0-.52,1.89,1.89,0,0,1,.1-.35,2,2,0,0,1,.45-.12c1.19,0,2.37,0,3.55,0a1,1,0,0,1,.45.12c.24.13.24.39.2.62a.44.44,0,0,1-.38.39A28,28,0,0,1,662.36,28.27Z"/><path class="cls-1" d="M677.38,17.86h-.82a2.6,2.6,0,0,1-.15-.56c0-1.15,0-2.3,0-3.45,0-.72.14-.78,1-.6A13.22,13.22,0,0,1,677.38,17.86Z"/><path class="cls-1" d="M671.73,14.21a3.56,3.56,0,0,1,.31.48c.48,1,1,2,1.42,3,.33.72.21.86-.76,1-.08-.15-.2-.31-.28-.49-.54-1.14-1.07-2.29-1.58-3.39C671,14.28,671.32,14.25,671.73,14.21Z"/><path class="cls-1" d="M663,33.18c.25-.14.37-.24.51-.3,1.06-.43,2.12-.87,3.19-1.28.69-.27.76-.21,1,.7a3.76,3.76,0,0,1-.68.39A34.63,34.63,0,0,1,663.46,34C663.33,33.76,663.21,33.52,663,33.18Z"/><path class="cls-1" d="M665.89,18l.64-.71A16.71,16.71,0,0,1,670,20.47l-.56.61a7,7,0,0,1-1.85-1.5C667,19.09,666.48,18.55,665.89,18Z"/><path class="cls-1" d="M683.33,41.14l-.76.36c-.39-.2-1.62-2.71-2.08-4.21l.78-.37A17.82,17.82,0,0,1,683.33,41.14Z"/><path class="cls-1" d="M668,23.38c-.1.3-.19.54-.26.74s-.23.11-.29.09a35.6,35.6,0,0,1-4-1.59c-.19-.45.09-.66.2-.91A17.46,17.46,0,0,1,668,23.38Z"/><path class="cls-1" d="M681.4,18.8l-.92-.4a9,9,0,0,1,.92-2.2,9.09,9.09,0,0,1,1.07-2l.89.39A42.52,42.52,0,0,1,681.4,18.8Z"/><path class="cls-1" d="M673.42,37.33a16,16,0,0,1-2,4.17,5.15,5.15,0,0,1-.52-.21.37.37,0,0,1-.2-.49c.12-.34.28-.66.43-1,.35-.75.69-1.51,1.06-2.26S672.65,36.8,673.42,37.33Z"/><path class="cls-1" d="M688.29,37.69l-.72.72a17.92,17.92,0,0,1-3.39-3.23l.55-.62a7.54,7.54,0,0,1,1.81,1.49C687.11,36.54,687.63,37.07,688.29,37.69Z"/><path class="cls-1" d="M686.21,32.3a1.71,1.71,0,0,1,.07-.41c.2-.41.36-.5.73-.38s.51.2.77.3c.84.34,1.68.67,2.52,1,.65.28.66.43.14,1.13A21.4,21.4,0,0,1,686.21,32.3Z"/><path class="cls-1" d="M687.61,17.26l.58.65a21.26,21.26,0,0,1-3.39,3.17l-.61-.55A14,14,0,0,1,687.61,17.26Z"/><path class="cls-1" d="M669.11,34.51l.68.67a19.57,19.57,0,0,1-3.27,3.19c-.08,0-.18,0-.23,0s-.33-.32-.52-.51a7.31,7.31,0,0,1,1.63-1.74C667.93,35.54,668.5,35.06,669.11,34.51Z"/><path class="cls-1" d="M686.56,24.21a2,2,0,0,1-.25-.37c-.16-.35-.12-.55.19-.68,1.17-.49,2.33-1,3.51-1.42.41-.16.62,0,.76.46a1.2,1.2,0,0,1,0,.33A19.91,19.91,0,0,1,686.56,24.21Z"/><path class="cls-1" d="M674.87,28.44c-.27,1.38,0,2.66-.21,3.87a1.41,1.41,0,0,1-1.25.09,3.64,3.64,0,0,1-.11-.66q0-3.87,0-7.74a7.4,7.4,0,0,1,.08-.75,3.87,3.87,0,0,1,.7-.13c1.31,0,2.62,0,3.93,0a4.72,4.72,0,0,1,1.17.21,2.18,2.18,0,0,1,1.63,2,2.34,2.34,0,0,1-1,2.48,9.65,9.65,0,0,1-1,.52,19.4,19.4,0,0,1,2.74,4,2.67,2.67,0,0,1-1.6.1c-.36-.56-.72-1.12-1.09-1.68s-.66-1-1-1.47a1.88,1.88,0,0,0-1.73-.85C675.7,28.46,675.34,28.44,674.87,28.44Zm0-1.32a23.6,23.6,0,0,0,3.14,0,2.05,2.05,0,0,0,.67-.23,1.13,1.13,0,0,0,.65-.92,1.27,1.27,0,0,0-1.17-1.59c-.86-.07-1.73,0-2.6,0a4.55,4.55,0,0,0-.69.12A8.34,8.34,0,0,0,674.85,27.12Z"/><text class="cls-2" transform="translate(117.97 143.05)">п<tspan class="cls-3" x="25.82" y="0">е</tspan><tspan class="cls-4" x="49.91" y="0">р</tspan><tspan class="cls-5" x="76.92" y="0">в</tspan><tspan class="cls-6" x="101.3" y="0">ы</tspan><tspan class="cls-7" x="133.03" y="0">й </tspan><tspan class="cls-8" x="170.17" y="0">ю</tspan><tspan class="cls-9" x="204.82" y="0">ве</tspan><tspan class="cls-10" x="253.11" y="0">ли</tspan><tspan class="cls-11" x="305.42" y="0">р</tspan><tspan class="cls-12" x="332.43" y="0">н</tspan><tspan class="cls-6" x="358.41" y="0">ы</tspan><tspan class="cls-7" x="390.15" y="0">й</tspan></text></g></g></svg>