<?xml version="1.0" encoding="utf-8"?>
<!-- Generator: Adobe Illustrator 16.2.0, SVG Export Plug-In . SVG Version: 6.00 Build 0)  -->
<!DOCTYPE svg PUBLIC "-//W3C//DTD SVG 1.1//EN" "http://www.w3.org/Graphics/SVG/1.1/DTD/svg11.dtd">
<svg version="1.1" id="Слой_1" xmlns="http://www.w3.org/2000/svg" xmlns:xlink="http://www.w3.org/1999/xlink" x="0px" y="0px"
	 width="2556.884px" height="696px" viewBox="0 0 2556.884 696" enable-background="new 0 0 2556.884 696" xml:space="preserve">
<g>
	<path fill-rule="evenodd" clip-rule="evenodd" fill="#ED1C2A" d="M1621.854,89.353c-0.024,1.356-0.064,2.715-0.064,4.072
		c0,102.711,0,205.424-0.014,308.134c-0.006,1.875,0.32,3.796-0.492,5.815c-0.702,0.18-1.449,0.456-2.223,0.554
		c-0.801,0.103-1.622,0.056-2.443,0.056c-19.971,0-39.94,0.007-59.908-0.01c-1.604-0.006-3.272,0.27-4.871-0.707
		c-0.598-3.197-0.23-6.456-0.29-9.692c-0.065-3.263-0.017-6.525-0.017-9.785c0-3.26,0-6.52,0-9.782c0-3.123,0-6.249,0-9.372
		c0-3.263,0-6.522,0-9.782c0-3.263,0-6.525,0-9.785s0-6.522,0-9.778c0-3.267,0-6.526,0-9.785c0-3.26,0-6.522,0-9.779
		c0-3.263,0-6.522,0-9.785c0-3.126,0-6.249,0-9.375c0-3.26,0-6.523,0-9.782c0-3.26,0-6.522,0-9.782s0-6.522,0-9.778
		c0-3.263,0-6.526,0-9.789c0-3.256,0-6.515,0-9.778c0-3.263,0-6.522,0-9.782c0-3.126,0-6.249,0-9.375c0-3.259,0-6.522,0-9.778
		c0-3.263,0-6.525,0-9.786c0-3.2,0.01-6.392-0.297-9.641c-2.969,4.61-4.978,9.604-7.313,14.429
		c-2.372,4.887-4.604,9.832-6.913,14.746c-2.315,4.914-4.647,9.818-6.956,14.732c-2.309,4.915-4.604,9.835-6.906,14.753
		c-2.318,4.911-4.641,9.818-6.949,14.732c-2.256,4.791-4.49,9.589-6.739,14.379c-2.308,4.917-4.618,9.829-6.926,14.746
		c-2.309,4.911-4.61,9.829-6.919,14.743c-2.309,4.915-4.627,9.826-6.943,14.743c-2.313,4.911-4.607,9.828-6.923,14.743
		c-2.308,4.897-4.624,9.792-7.009,14.849c-8.846,0.28-17.498,0.173-26.279,0.066c-3.154-5.872-5.686-11.863-8.492-17.728
		c-2.858-6.002-5.621-12.054-8.447-18.076c-2.755-5.905-5.533-11.797-8.303-17.699c-2.764-5.896-5.531-11.793-8.295-17.699
		c-2.814-6.022-5.635-12.05-8.453-18.076c-2.756-5.901-5.512-11.81-8.268-17.711c-2.762-5.902-5.525-11.801-8.294-17.699
		c-2.819-6.026-5.651-12.044-8.483-18.063c-2.739-5.829-5.402-11.697-8.301-17.633c-0.397,0.435-0.504,0.504-0.544,0.604
		c-0.05,0.12-0.058,0.26-0.07,0.4c-0.017,0.127-0.017,0.268-0.017,0.401c-0.006,0.14-0.006,0.273-0.006,0.41s0,0.271,0,0.407
		c0,0.27,0,0.544,0,0.817c0,0.27,0,0.54,0,0.814c0,64.936,0,129.879,0,194.826c0,0.267,0,0.541-0.008,0.814c0,0.134,0,0.271,0,0.407
		s0,0.271-0.006,0.407c0,0.137-0.007,0.271-0.007,0.41c0,0.134-0.007,0.271-0.014,0.403c-0.013,0.138-0.026,0.271-0.04,0.407
		s-0.014,0.271-0.051,0.404c-0.036,0.13-0.09,0.254-0.152,0.38c-0.051,0.117-0.117,0.233-0.211,0.394
		c-1.414,1.014-3.096,0.681-4.693,0.685c-11.688,0.03-23.371,0.016-35.047,0.016c-8.158,0-16.314,0.01-24.462-0.013
		c-1.465-0.007-3.006,0.26-4.304-0.741c-0.697-1.595-0.428-3.246-0.428-4.851c-0.013-22.013-0.013-44.022-0.013-66.031
		c0-80.157,0-160.316,0.007-240.475c0-2.173,0.02-4.347,0.029-6.521c25.272,0,50.541,0,75.816,0
		c0.754,1.438,1.571,2.846,2.249,4.321c18.325,39.824,36.638,79.662,54.951,119.494c8.11,17.632,16.224,35.268,24.345,52.893
		c0.553,1.194,0.834,2.565,2.135,3.56c0.434-0.811,0.84-1.505,1.175-2.225c3.075-6.653,6.151-13.305,9.208-19.964
		c23.586-51.301,47.174-102.603,70.744-153.911c0.614-1.339,1.012-2.775,1.509-4.167
		C1570.766,89.353,1596.307,89.353,1621.854,89.353z"/>
	<path fill-rule="evenodd" clip-rule="evenodd" fill="#ED1C2A" d="M244.059,89.353c1.054,0.202,2.108,0.521,3.169,0.585
		c14.183,0.889,27.898,3.94,41.116,9.102c13.188,5.146,25.059,12.378,34.974,22.598c9.578,9.869,16.121,21.432,19.073,34.921
		c1.465,6.665,1.925,13.405,1.555,20.237c-0.397,7.233-1.535,14.306-3.873,21.155c-3.94,11.583-10.693,21.289-19.911,29.302
		c-6.179,5.385-13.051,9.729-20.391,13.342c-1.198,0.591-2.369,1.211-3.437,1.762c-0.167,1.071,0.607,0.951,1.018,1.174
		c0.467,0.26,0.991,0.417,1.505,0.604c6.512,2.382,12.774,5.294,18.683,8.951c9.725,6.022,17.952,13.602,24.021,23.37
		c5.167,8.304,8.3,17.338,9.572,27.037c2.155,16.407,0.173,32.228-6.699,47.341c-6.089,13.401-15.327,24.274-27.067,33.062
		c-11.9,8.904-25.219,14.826-39.521,18.636c-7.603,2.032-15.313,3.48-23.167,4.248c-9.878,0.96-19.763,1.538-29.685,0.88
		c-1.755-0.123-3.523-0.146-5.292-0.177c-6.252-0.09-12.448-0.84-18.657-1.534c-8.908-1.001-17.679-2.656-26.369-4.818
		c-26.677-6.639-49.887-19.577-69.951-38.273c-1.785-1.665-3.496-3.424-5.321-5.048c-0.561-0.501-1.392-0.711-2.095-1.051
		c0-0.271,0-0.544,0-0.818c1.438-0.43,2.051-1.725,2.869-2.775c3.006-3.86,5.956-7.757,8.934-11.641
		c7.431-9.708,14.854-19.423,22.31-29.112c0.881-1.135,1.515-2.589,3.239-3.109c0.718,0.59,1.455,1.167,2.163,1.788
		c2.035,1.795,4.017,3.656,6.095,5.409c20.087,16.871,43.287,26.643,69.177,30.219c7.54,1.041,15.153,1.111,22.763,1.074
		c5.185-0.026,10.292-0.644,15.336-1.785c6.799-1.542,13.245-3.977,19.011-7.987c8.113-5.646,13.204-13.182,14.229-23.17
		c0.964-9.439-1.518-17.746-8.357-24.544c-3.319-3.297-7.239-5.699-11.483-7.617c-8.641-3.911-17.823-5.742-27.184-6.399
		c-7.99-0.561-16.021-0.558-24.034-0.677c-6.926-0.101-13.855-0.01-20.785-0.038c-1.331-0.003-2.726,0.271-4.03-0.52
		c-0.901-1.308-0.558-2.853-0.567-4.307c-0.034-10.323-0.014-20.652-0.014-30.978c0-5.705-0.02-11.414,0.014-17.122
		c0.01-1.19-0.233-2.472,1.021-3.72c1.214-0.027,2.692-0.086,4.177-0.086c9.372-0.014,18.747-0.081,28.125,0.017
		c7.354,0.07,14.649-0.424,21.889-1.665c6.866-1.181,13.464-3.159,19.487-6.776c8.021-4.824,13.091-11.753,14.479-21.085
		c1.788-11.987-1.701-22.046-11.537-29.479c-2.269-1.705-4.794-3.105-7.333-4.367c-7.039-3.487-14.636-5.105-22.38-5.545
		c-11.536-0.651-23.043-0.107-34.443,2.222c-12.644,2.582-24.428,7.193-35.276,14.186c-6.53,4.217-12.488,9.145-18.069,14.546
		c-0.845,0.817-1.505,1.975-3.263,2.088c-0.364-0.441-0.887-1.058-1.401-1.682c-10.739-12.988-21.468-25.977-32.181-38.974
		c-0.581-0.7-1.034-1.504-1.551-2.272c0.467-0.624,0.727-1.104,1.111-1.472c3.326-3.206,6.579-6.499,10.016-9.568
		c17.936-15.987,38.426-27.293,61.707-33.454c11.434-3.03,23.02-5.076,34.854-5.641c1.074-0.05,2.118-0.377,3.18-0.574
		C227.748,89.353,235.905,89.353,244.059,89.353z"/>
	<path fill-rule="evenodd" clip-rule="evenodd" fill="#ED1C2A" d="M2142.05,407.58c-0.845,0.144-1.509,0.357-2.155,0.357
		c-14.266,0.01-28.531,0-42.797-0.026c-0.521,0-1.035-0.227-1.749-0.394c-0.187-0.764-0.474-1.515-0.534-2.276
		c-0.094-1.354-0.049-2.719-0.049-4.076c0-28.665,0-57.333-0.008-85.995c0-1.464-0.057-2.93-0.097-4.761
		c-1.501,0.724-1.968,1.872-2.603,2.83c-9.981,14.893-19.949,29.792-29.93,44.688c-10.346,15.46-20.684,30.934-31.057,46.374
		c-2.462,3.667-1.801,3.683-6.893,3.683c-12.23,0-24.454,0.007-36.682-0.007c-1.479-0.003-2.986,0.17-4.611-0.52
		c-0.176-0.694-0.47-1.445-0.529-2.216c-0.1-1.21-0.047-2.438-0.047-3.66c0-53.123-0.01-106.239,0-159.359
		c0-1.875,0.137-3.753,0.213-5.802c0.874-0.187,1.501-0.44,2.129-0.44c14.393-0.02,28.799-0.017,43.197-0.007
		c0.534,0,1.061,0.161,1.735,0.271c0.196,0.781,0.497,1.538,0.554,2.315c0.097,1.352,0.047,2.716,0.047,4.074
		c0,28.528,0,57.057,0.013,85.588c0,1.594-0.2,3.216,0.254,4.738c1.269,0.307,1.499-0.688,1.901-1.281
		c4.475-6.649,8.908-13.322,13.361-19.984c15.984-23.947,31.965-47.892,47.953-71.839c0.82-1.234,1.688-2.435,2.428-3.486
		c3.684-0.554,42.354-0.571,45.96-0.041c0.167,0.571,0.46,1.198,0.501,1.835c0.1,1.354,0.087,2.715,0.087,4.073
		c0.007,53.123,0.007,106.242-0.015,159.362C2142.629,403.467,2142.937,405.389,2142.05,407.58z"/>
	<path fill-rule="evenodd" clip-rule="evenodd" fill="#ED1C2A" d="M2202.689,344.822c-1.676-0.774-2.89-1.321-4.11-1.895
		c-5.812-2.739-11.197-6.112-15.874-10.559c-8.508-8.094-13.148-18.092-14.823-29.636c-1.204-8.317-0.831-16.548,1.214-24.655
		c3.494-13.849,11.527-24.387,23.771-31.727c7.426-4.451,15.506-7.126,23.961-8.705c6.816-1.274,13.709-1.751,20.65-1.731
		c28.125,0.077,56.243,0.027,84.361,0.04c1.602,0,3.239-0.207,4.998,0.427c0.109,0.834,0.256,1.612,0.3,2.389
		c0.053,1.084,0.026,2.175,0.026,3.263c0,53.253,0,106.506-0.007,159.759c0,1.755-0.058,3.503-0.083,5.391
		c-0.921,0.291-1.652,0.627-2.406,0.728c-0.938,0.126-1.901,0.073-2.85,0.073c-12.91,0-25.809,0.01-38.723-0.016
		c-1.598-0.004-3.273,0.323-4.757-0.641c-0.741-1.418-0.44-2.943-0.44-4.411c-0.031-15.083-0.008-30.159-0.031-45.239
		c0-1.461,0.241-2.972-0.347-4.327c-3.336-0.644-15.907-0.808-25.231-0.344c-0.725,1.024-1.604,2.202-2.406,3.433
		c-10.375,15.773-20.721,31.561-31.094,47.331c-3.002,4.561-2.178,4.204-7.813,4.207c-15.357,0.014-30.711,0.014-46.061-0.003
		c-1.582-0.003-3.223,0.227-5.021-0.557c0.307-0.764,0.467-1.385,0.79-1.915c0.554-0.928,1.211-1.802,1.824-2.696
		c12.559-18.066,25.116-36.128,37.664-54.201C2200.951,347.505,2201.661,346.367,2202.689,344.822z M2277.467,274.841
		c-0.72-0.1-1.244-0.247-1.768-0.247c-11.263-0.007-22.547-0.094-33.813,0.063c-4.341,0.063-8.617,1.001-12.647,2.746
		c-6.773,2.929-10.856,8.021-11.837,15.354c-1.108,8.241,1.664,16.628,11.082,21.085c3.337,1.582,6.873,2.732,10.543,2.803
		c12.084,0.223,24.164,0.26,36.248,0.327c0.75,0.006,1.512-0.32,2.156-0.468C2278.015,312.908,2278.045,278.852,2277.467,274.841z"
		/>
	<path fill-rule="evenodd" clip-rule="evenodd" fill="#ED1C2A" d="M462.605,407.94c-16.131-0.137-30.586-2.872-44.042-9.632
		c-26.613-13.378-43.134-34.644-48.395-64.065c-4.681-26.133,1.257-49.934,17.658-70.845c12.675-16.147,29.376-26.33,49.177-31.454
		c8.704-2.255,17.599-3.393,26.59-3.156c16.66,0.434,32.524,4.157,47,12.698c23.461,13.845,37.9,34.152,42.682,61
		c4.457,25.055-0.832,48.088-15.928,68.596c-12.891,17.505-30.34,28.421-51.301,33.853
		C477.979,407.023,469.748,407.69,462.605,407.94z M506.004,317.078c-0.02-3.209-0.544-8.177-1.982-13.041
		c-6.646-22.574-27.674-36.689-52.385-31.685c-13.986,2.836-23.941,11.123-29.76,24.151c-4.871,10.896-5.852,22.296-3.076,33.846
		c5.677,23.601,26.62,38.837,52.182,34.21c13.542-2.449,23.468-10.152,29.72-22.449
		C504.406,334.833,505.953,327.037,506.004,317.078z"/>
	<path fill-rule="evenodd" clip-rule="evenodd" fill="#ED1C2A" d="M844.658,407.944c-14.426-0.154-28.387-2.703-41.412-9.035
		c-27.808-13.524-44.875-35.438-49.894-66.084c-4.331-26.517,2.192-50.417,19.31-71.169c12.488-15.146,28.639-24.741,47.565-29.672
		c8.831-2.302,17.858-3.47,26.99-3.2c19.708,0.591,38.036,5.766,54.157,17.429c18.883,13.652,30.857,31.932,35.051,54.885
		c5.334,29.239-1.745,55.248-21.803,77.347c-12.294,13.545-27.693,22.086-45.389,26.517
		C861.18,406.979,852.332,407.991,844.658,407.944z M889.537,319.547c0.021-6.2-0.789-11.564-2.484-16.749
		c-7.437-22.76-28.615-35.237-52.076-30.426c-13.995,2.866-23.906,11.197-29.742,24.201c-4.707,10.485-5.691,21.525-3.272,32.678
		c5.292,24.345,26.623,40.025,52.525,35.291c13.205-2.416,23.014-9.865,29.306-21.796C887.73,335.267,889.291,327.2,889.537,319.547
		z"/>
	<path fill-rule="evenodd" clip-rule="evenodd" fill="#ED1C2A" d="M1183.098,408.047c-20.342-0.37-39.164-5.592-55.793-17.585
		c-19.303-13.926-31.287-32.715-35.264-56.116c-8.254-48.633,21.285-89.418,64.086-101.636c6.402-1.828,12.928-2.909,19.58-3.469
		c19.164-1.628,37.367,1.715,54.261,10.849c24.955,13.492,40.409,34.394,45.272,62.308c8.068,46.343-18.705,85.604-57.857,99.62
		c-8.734,3.129-17.688,5.141-26.977,5.542C1187.965,407.664,1185.529,407.884,1183.098,408.047z M1227.973,318.149
		c0.221-4.377-0.541-9.074-1.861-13.648c-6.779-23.454-28.092-37.055-52.452-32.162c-14.326,2.879-24.375,11.45-30.146,24.842
		c-4.424,10.262-5.308,20.985-3.089,31.915c1.033,5.078,2.902,9.882,5.523,14.379c9.977,17.105,28.576,24.869,47.703,20.918
		c15.18-3.129,25.331-12.391,30.926-26.697C1226.973,331.574,1228.086,325.165,1227.973,318.149z"/>
	<path fill-rule="evenodd" clip-rule="evenodd" fill="#ED1C2A" d="M556.228,404.638c0-2.319-0.146-4.487,0.026-6.629
		c0.838-10.549,1.766-21.091,2.686-31.637c0.014-0.23,0.271-0.444,0.551-0.864c2.416-0.24,4.955,0.234,7.493,0.234
		c2.035-0.007,4.067,0.023,6.099-0.06c4.511-0.187,8.008-2.302,10.713-5.815c1.842-2.385,3.112-5.087,4.16-7.896
		c1.945-5.238,3.143-10.673,4.03-16.164c1.878-11.67,2.832-23.431,3.47-35.234c1.107-20.618,1.504-41.249,1.491-61.897
		c-0.007-1.341,0.069-2.679,0.11-4.087c0.887-0.22,1.521-0.471,2.162-0.51c1.354-0.09,2.715-0.087,4.076-0.087
		c41.971-0.003,83.937-0.006,125.906,0.007c1.869,0,3.773-0.217,5.818,0.444c0.141,0.814,0.351,1.581,0.397,2.355
		c0.07,1.221,0.034,2.445,0.034,3.663c0,52.973,0.01,105.942-0.014,158.912c0,2.005,0.33,4.066-0.514,6.035
		c-0.421,0.143-0.791,0.39-1.162,0.39c-15.213,0.033-30.42,0.047-45.629,0.041c-0.511,0-1.018-0.228-1.668-0.375
		c-0.16-0.84-0.385-1.614-0.424-2.398c-0.087-1.354-0.044-2.716-0.044-4.074c-0.007-38.981,0-77.961-0.013-116.935
		c0-1.749-0.07-3.493-0.11-5.398c-1.015-0.184-1.782-0.438-2.55-0.438c-12.494-0.022-24.988-0.016-37.488-0.003
		c-0.523,0-1.055,0.117-1.479,0.167c-1.081,0.914-0.854,2.065-0.881,3.116c-0.174,6.378-0.41,12.757-0.46,19.143
		c-0.097,11.417-0.813,22.8-1.952,34.143c-1.284,12.834-3.152,25.589-7.115,37.933c-1.459,4.534-3.211,8.938-5.422,13.158
		c-6.843,13.075-17.531,20.721-32.168,22.85c-6.863,0.998-13.736,1.398-20.691,0.928c-5.289-0.357-10.525-0.974-15.744-1.815
		C558.57,405.622,557.295,405.352,556.228,404.638z"/>
	<path fill-rule="evenodd" clip-rule="evenodd" fill="#ED1C2A" d="M1808.566,407.28c-0.114-0.438-0.357-0.951-0.357-1.472
		c0-56.095,0.023-112.197,0.049-168.3c0-0.364,0.274-0.73,0.488-1.284c0.613-0.09,1.261-0.228,1.911-0.257
		c7.903-0.333,42.968-0.1,46.224,0.324c0.174,0.677,0.48,1.425,0.547,2.189c0.104,1.214,0.047,2.445,0.047,3.667
		c0.007,18.065,0,36.131,0.007,54.2c0,1.615,0.058,3.236,0.094,5.038c1.114,0.181,2.015,0.447,2.929,0.447
		c17.656,0.027,35.311,0.021,52.977,0.007c0.656,0,1.318-0.12,2.205-0.207c0.206-0.79,0.514-1.528,0.58-2.282
		c0.101-1.217,0.053-2.442,0.053-3.666c0.008-18.066-0.006-36.135,0.021-54.197c0-1.739-0.307-3.537,0.586-5.138
		c3.256-0.524,44.433-0.564,48.316-0.027c0.16,0.814,0.42,1.701,0.51,2.608c0.098,0.941,0.037,1.899,0.037,2.846
		c0,53.387,0.006,106.773-0.007,160.157c0,1.745,0.207,3.523-0.319,5.071c-1.111,1.175-2.396,0.954-3.584,0.961
		c-4.344,0.034-8.697,0.02-13.045,0.02c-9.094,0-18.199,0.007-27.297-0.007c-1.472-0.003-2.943-0.12-4.534-0.19
		c-0.257-0.998-0.563-1.745-0.62-2.512c-0.097-1.354-0.057-2.715-0.057-4.074c0-17.799,0-35.591-0.008-53.39
		c0-1.611-0.089-3.229-0.126-4.584c-1.255-1.288-2.552-0.924-3.724-0.931c-9.361-0.03-18.735-0.017-28.114-0.017
		c-7.333,0-14.663,0-22.002,0c-1.354,0-2.702,0-4.291,0c-0.21,1.041-0.522,1.918-0.554,2.802c-0.066,2.853-0.026,5.708-0.026,8.557
		c-0.007,16.168,0,32.332-0.007,48.496c0,1.619-0.069,3.233-0.106,4.991c-0.892,0.307-1.608,0.671-2.362,0.784
		c-0.928,0.133-1.898,0.073-2.849,0.073c-12.905,0-25.81,0.01-38.708-0.016C1811.842,407.964,1810.166,408.284,1808.566,407.28z"/>
	<path fill-rule="evenodd" clip-rule="evenodd" fill="#ED1C2A" d="M1743.238,387.68c-1.371,1.154-2.117,1.725-2.799,2.362
		c-9.791,9.188-21.338,14.726-34.613,16.761c-12.688,1.948-25.166,1.391-37.387-2.683c-7.156-2.389-13.651-6.005-19.26-11.106
		c-8.574-7.81-13.512-17.528-15.299-28.935c-1.242-7.877-0.992-15.68,0.753-23.46c2.976-13.322,10.429-23.397,22.032-30.463
		c6.432-3.92,13.441-6.409,20.758-8.087c11.344-2.606,22.877-3.053,34.418-2.312c9.479,0.606,18.833,2.281,27.896,5.288
		c1.025,0.34,2.082,0.59,3.131,0.864c0.119,0.034,0.26-0.04,0.466-0.076c0.741-0.314,0.601-1.065,0.638-1.698
		c0.166-4.118-0.49-8.137-1.785-12.021c-2.061-6.182-5.979-10.903-11.656-14.119c-3.943-2.231-8.215-3.533-12.671-4.22
		c-7.021-1.078-14.036-0.901-21.112-0.3c-11.184,0.941-21.898,3.663-32.408,7.399c-1.021,0.364-2.068,0.657-3.113,0.934
		c-0.23,0.061-0.516-0.076-0.97-0.163c-0.214-0.324-0.622-0.731-0.774-1.214c-3.857-11.714-7.688-23.437-11.58-35.312
		c0.691-0.483,1.178-0.947,1.751-1.204c10.563-4.724,21.499-8.221,32.872-10.416c14.229-2.749,28.609-3.096,42.994-2.295
		c9.922,0.547,19.604,2.683,28.805,6.62c16.951,7.259,27.752,19.977,33.076,37.482c1.861,6.116,2.923,12.388,3.51,18.773
		c0.494,5.425,0.547,10.843,0.547,16.277c0.008,29.482,0.008,58.961-0.006,88.44c-0.014,1.741,0.287,3.53-0.387,5.198
		c-1.309,1.181-2.869,0.814-4.321,0.824c-6.929,0.037-13.855,0.017-20.781,0.017c-5.838,0.003-11.687,0.013-17.525-0.007
		c-1.345-0.007-2.687-0.1-4.277-0.167c-0.18-1.248-0.437-2.289-0.46-3.33c-0.063-3.259,0-6.519-0.051-9.778
		C1743.636,390.516,1743.436,389.488,1743.238,387.68z M1744.656,336.269c-0.586-0.661-0.728-0.941-0.947-1.051
		c-0.854-0.417-1.719-0.824-2.596-1.147c-12.33-4.474-24.98-6.075-37.979-3.934c-4.424,0.728-8.681,2.122-12.511,4.598
		c-7.5,4.848-10.336,11.961-9.695,20.571c0.348,4.604,2.295,8.621,5.762,11.787c2.031,1.849,4.354,3.226,6.898,4.227
		c3.824,1.502,7.814,2.155,11.888,2.399c3.69,0.22,7.333-0.224,10.933-0.841c6.783-1.164,13.068-3.549,18.402-8.043
		c5.168-4.356,8.385-9.822,9.452-16.574C1744.906,344.199,1744.63,340.155,1744.656,336.269z"/>
	<path fill-rule="evenodd" clip-rule="evenodd" fill="#ED1C2A" d="M1088.715,236.041c0.857,3.783,1.067,18.036,0.658,37.896
		c-0.031,1.188-0.205,2.375-0.301,3.386c-1.688,0.975-3.21,0.654-4.678,0.658c-13.582,0.023-27.157,0.01-40.738,0.02
		c-1.479,0.003-2.96,0.06-4.585,0.093c-0.25,0.938-0.57,1.679-0.626,2.436c-0.098,1.352-0.037,2.713-0.037,4.074
		c-0.007,39.107,0,78.215-0.007,117.322c0,1.748-0.047,3.497-0.083,5.412c-1.139,0.243-2.022,0.58-2.916,0.6
		c-2.986,0.077-5.979,0.047-8.965,0.047c-10.863,0-21.723,0.007-32.586-0.01c-1.604-0.006-3.252,0.227-4.967-0.611
		c-0.146-0.76-0.363-1.524-0.404-2.302c-0.069-1.354-0.043-2.716-0.043-4.074c0-39.107,0.006-78.211-0.014-117.322
		c0-1.725,0.32-3.51-0.427-5.125c-1.519-0.837-3.04-0.527-4.505-0.53c-13.584-0.023-27.159-0.01-40.741-0.02
		c-1.465,0-2.937-0.1-4.548-0.154c-0.184-1.014-0.439-1.785-0.439-2.556c-0.03-12.22-0.03-24.441-0.014-36.662
		c0-0.664,0.146-1.321,0.244-2.182c0.813-0.167,1.574-0.384,2.334-0.464c0.812-0.08,1.635-0.03,2.443-0.03
		c47.124,0,94.242,0,141.369,0.007C1085.615,235.951,1087.097,236.008,1088.715,236.041z"/>
</g>
<g>
	<path fill-rule="evenodd" clip-rule="evenodd" fill="#ED1C2A" d="M2459.576,186.371c-4.984,0.187-9.965,0.157-14.74,0.027
		c-1.09-1.202-0.961-2.202-0.443-3.38c2.372-1.057,4.965-0.45,7.486-0.566c2.56-0.117,5.125-0.11,7.697-0.157
		C2459.576,183.652,2459.576,185.01,2459.576,186.371z"/>
	<path fill-rule="evenodd" clip-rule="evenodd" fill="#ED1C2A" d="M2410.084,216.958c-17.26,0.22-32.703-13.751-32.568-32.592
		c0.148-20.554,17.361-32.618,32.777-32.468c17.68,0.167,32.539,14.956,32.411,32.879
		C2442.578,201.25,2429.032,217.091,2410.084,216.958z M2409.716,213.165c13.118,0.69,29.06-9.815,29.082-28.729
		c0.021-16.328-12.681-28.798-28.741-28.719c-18.203,0.094-28.563,15.006-28.699,28.388
		C2381.191,200.343,2394.616,213.331,2409.716,213.165z"/>
	<path fill-rule="evenodd" clip-rule="evenodd" fill="#ED1C2A" d="M2408.715,235.12c-0.207-0.387-0.446-0.614-0.446-0.851
		c-0.047-4.573-0.101-9.148-0.06-13.722c0-1.044,0.84-1.548,1.994-1.491c0.914,0.05,1.527,0.464,1.748,1.368
		c0.088,0.391,0.16,0.797,0.16,1.194c0.007,3.907,0,7.813-0.04,11.717c-0.007,0.517-0.243,1.031-0.433,1.785
		C2410.607,235.12,2409.627,235.12,2408.715,235.12z"/>
	<path fill-rule="evenodd" clip-rule="evenodd" fill="#ED1C2A" d="M2360.133,185.944c-0.066-0.737-0.166-1.268-0.141-1.788
		c0.023-0.384,0.221-0.754,0.364-1.201c0.518-0.147,1.024-0.414,1.538-0.42c4.037-0.047,8.074-0.054,12.117-0.033
		c0.506,0.006,1.067,0.173,1.515,0.42c0.844,0.46,0.837,1.321,0.714,2.132c-0.117,0.724-0.577,1.178-1.328,1.318
		C2373.193,186.688,2362.582,186.424,2360.133,185.944z"/>
	<path fill-rule="evenodd" clip-rule="evenodd" fill="#ED1C2A" d="M2411.444,150.353c-0.845,0-1.752,0-2.809,0
		c-0.174-0.661-0.487-1.288-0.495-1.915c-0.053-3.921-0.079-7.841-0.025-11.765c0.043-2.465,0.446-2.662,3.393-2.068
		C2412.411,137.882,2412.405,146.957,2411.444,150.353z"/>
	<path fill-rule="evenodd" clip-rule="evenodd" fill="#ED1C2A" d="M2392.154,137.889c0.363,0.554,0.787,1.071,1.063,1.655
		c1.638,3.416,3.271,6.832,4.849,10.282c1.11,2.442,0.724,2.936-2.604,3.296c-0.293-0.507-0.68-1.054-0.957-1.648
		c-1.845-3.91-3.662-7.837-5.408-11.583C2389.559,138.132,2390.76,138.025,2392.154,137.889z"/>
	<path fill-rule="evenodd" clip-rule="evenodd" fill="#ED1C2A" d="M2362.469,202.722c0.834-0.497,1.25-0.831,1.728-1.024
		c3.63-1.488,7.253-2.986,10.903-4.403c2.361-0.917,2.608-0.714,3.396,2.422c-0.747,0.427-1.494,1-2.342,1.308
		c-4.037,1.485-7.867,3.523-12.245,4.618C2363.436,204.681,2363.029,203.866,2362.469,202.722z"/>
	<path fill-rule="evenodd" clip-rule="evenodd" fill="#ED1C2A" d="M2372.19,150.8c0.854-0.948,1.534-1.702,2.175-2.416
		c2.956,1.675,9.662,7.894,11.79,10.9c-0.594,0.654-1.214,1.331-1.911,2.095c-2.72-1.111-4.283-3.413-6.299-5.141
		C2376.014,154.577,2374.219,152.731,2372.19,150.8z"/>
	<path fill-rule="evenodd" clip-rule="evenodd" fill="#ED1C2A" d="M2431.781,229.889c-1.021,0.49-1.852,0.888-2.595,1.241
		c-1.349-0.697-5.548-9.271-7.104-14.386c0.878-0.42,1.792-0.857,2.653-1.268C2426.76,218.031,2429.994,224.654,2431.781,229.889z"
		/>
	<path fill-rule="evenodd" clip-rule="evenodd" fill="#ED1C2A" d="M2379.316,169.209c-0.361,1.027-0.658,1.868-0.904,2.559
		c-0.504,0.156-0.798,0.36-1.002,0.297c-4.746-1.542-9.344-3.433-13.674-5.445c-0.65-1.524,0.283-2.238,0.68-3.089
		C2367.306,163.898,2373.961,166.43,2379.316,169.209z"/>
	<path fill-rule="evenodd" clip-rule="evenodd" fill="#ED1C2A" d="M2425.18,153.589c-1.271-0.557-2.105-0.927-3.127-1.378
		c0.502-2.826,2.01-5.094,3.117-7.503c1.063-2.306,1.881-4.758,3.656-6.979c0.994,0.434,1.922,0.831,3.066,1.325
		C2429.987,144.094,2427.678,148.625,2425.18,153.589z"/>
	<path fill-rule="evenodd" clip-rule="evenodd" fill="#ED1C2A" d="M2397.912,216.891c-0.791,3.383-4.641,11.527-6.775,14.246
		c-0.564-0.227-1.191-0.434-1.785-0.721c-0.701-0.34-0.965-0.988-0.701-1.688c0.428-1.134,0.957-2.235,1.469-3.336
		c1.201-2.576,2.375-5.162,3.623-7.717C2395.003,215.092,2395.29,215.056,2397.912,216.891z"/>
	<path fill-rule="evenodd" clip-rule="evenodd" fill="#ED1C2A" d="M2448.717,218.118c-1.074,1.068-1.789,1.778-2.469,2.449
		c-3.65-2.516-9.822-8.4-11.563-11.023c0.56-0.647,1.153-1.321,1.868-2.129c2.623,1.162,4.211,3.396,6.191,5.105
		C2444.674,214.182,2446.472,215.997,2448.717,218.118z"/>
	<path fill-rule="evenodd" clip-rule="evenodd" fill="#ED1C2A" d="M2441.631,199.683c0.086-0.601,0.053-1.035,0.213-1.378
		c0.682-1.418,1.252-1.725,2.496-1.314c0.9,0.29,1.762,0.684,2.635,1.041c2.873,1.165,5.756,2.299,8.602,3.523
		c2.238,0.958,2.275,1.451,0.48,3.854C2453.014,204.804,2445.634,201.891,2441.631,199.683z"/>
	<path fill-rule="evenodd" clip-rule="evenodd" fill="#ED1C2A" d="M2446.391,148.305c0.65,0.734,1.332,1.495,1.979,2.222
		c-2.286,2.943-8.419,8.694-11.577,10.85c-0.694-0.634-1.445-1.315-2.082-1.892C2435.064,157.859,2442.775,150.593,2446.391,148.305
		z"/>
	<path fill-rule="evenodd" clip-rule="evenodd" fill="#ED1C2A" d="M2383.199,207.249c0.914,0.911,1.629,1.622,2.309,2.306
		c-1.781,2.565-7.006,7.623-11.162,10.873c-0.268-0.043-0.607,0-0.774-0.15c-0.607-0.517-1.138-1.107-1.788-1.761
		c1.314-2.605,3.703-4.034,5.574-5.922C2379.156,210.776,2381.125,209.127,2383.199,207.249z"/>
	<path fill-rule="evenodd" clip-rule="evenodd" fill="#ED1C2A" d="M2442.824,172.055c-0.276-0.383-0.67-0.77-0.881-1.241
		c-0.547-1.211-0.39-1.892,0.672-2.335c3.979-1.665,7.963-3.296,11.977-4.868c1.404-0.55,2.129-0.063,2.608,1.595
		c0.104,0.35-0.03,0.773-0.056,1.117C2453.875,168.255,2446.102,171.371,2442.824,172.055z"/>
	<path fill-rule="evenodd" clip-rule="evenodd" fill="#ED1C2A" d="M2402.877,186.511c-0.914,4.713,0.119,9.091-0.734,13.218
		c-1.435,0.938-2.732,0.737-4.244,0.307c-0.133-0.717-0.403-1.488-0.403-2.259c-0.036-8.817-0.036-17.632-0.017-26.45
		c0-0.791,0.167-1.578,0.28-2.552c0.861-0.167,1.622-0.431,2.382-0.434c4.48-0.044,8.961-0.073,13.432,0.013
		c1.332,0.027,2.686,0.333,3.977,0.694c3.41,0.938,5.111,3.396,5.579,6.753c0.493,3.496-0.474,6.472-3.557,8.467
		c-1.021,0.661-2.162,1.111-3.483,1.771c3.699,4.124,6.693,8.685,9.365,13.799c-1.898,0.891-3.572,0.577-5.461,0.333
		c-1.229-1.892-2.463-3.823-3.727-5.728c-1.129-1.695-2.252-3.393-3.453-5.031c-1.449-1.979-3.356-3.083-5.906-2.916
		C2405.695,186.578,2404.475,186.511,2402.877,186.511z M2402.8,182.021c3.794,0.24,7.27,0.24,10.746,0.036
		c0.774-0.046,1.556-0.423,2.272-0.764c1.307-0.624,2.012-1.728,2.238-3.149c0.467-2.859-1.105-5.188-4.01-5.425
		c-2.943-0.237-5.919-0.14-8.881-0.13c-0.765,0.01-1.528,0.24-2.359,0.38C2402.296,175.955,2402.369,178.738,2402.8,182.021z"/>
</g>
<g>
	<path d="M511.348,578.07v-70.156h65.441v70.156h-15.431v-56.583h-34.58v56.583H511.348z"/>
	<path d="M604.572,516.63c6.717-7.001,15.287-10.574,26.004-10.574c7.146,0,13.287,1.858,18.432,5.715
		c10.434,7.431,14.86,19.005,14.86,31.721v4.001h-53.724c1.857,11.859,12.144,18.86,26.434,18.86c8.143,0,15.576-2.144,22.576-6.287
		v13.003c-6.43,4.572-15.004,6.859-25.863,6.859s-20.004-3.429-27.577-10.289c-7.43-6.858-11.144-15.717-11.144-26.719
		C594.57,532.491,597.857,523.631,604.572,516.63z M648.295,535.777c-0.144-4.287-1.716-8.145-5.002-11.573
		c-3.285-3.43-7.717-5.145-13.432-5.145c-11.286,0-18.572,7.573-19.573,16.718H648.295z"/>
	<path d="M746.724,516.772c6.429,7.145,9.571,15.861,9.571,26.292c0,10.287-3.143,19.005-9.571,26.147
		c-6.433,7.145-14.575,10.718-24.435,10.718c-10.859,0-19.146-3.858-25.006-11.432v38.15h-15.43v-98.732h15.43v9.573
		c5.859-7.573,14.146-11.432,25.006-11.432C732.148,506.056,740.291,509.629,746.724,516.772z M697.283,532.204v21.719
		c3.861,7.001,11.717,12.431,20.862,12.431c6.429,0,11.86-2.285,16.147-6.716c4.287-4.572,6.429-10.144,6.429-16.574
		c0-6.573-2.142-12.146-6.429-16.575c-4.287-4.572-9.719-6.858-16.147-6.858C709,519.631,701.145,524.917,697.283,532.204z"/>
	<path d="M774.147,578.07v-70.156h38.294c14.145,0,22.002,7.573,22.002,17.86c0,7.001-3.713,12.716-9.002,15.145
		c9.145,2.716,13.72,8.716,13.72,18.004c0,11.86-9.005,19.146-24.579,19.146H774.147z M789.578,535.919h19.146
		c6.715,0,10.572-3,10.572-7.715c0-5.286-3.57-7.858-10.572-7.858h-19.146V535.919z M789.578,565.64h22.289
		c7.289,0,11.573-3.286,11.573-8.572c0-5.573-4.284-8.718-11.573-8.718h-22.289V565.64z"/>
	<path d="M857.414,578.07v-70.156h15.43v21.291h17.004c17.146,0,28.292,9.573,28.292,24.433c0,7.001-2.429,12.859-7.29,17.575
		c-4.857,4.571-11.573,6.857-20.287,6.857H857.414z M872.844,565.068h15.289c9.002,0,14.43-4.429,14.43-11.43
		c0-7.288-5.285-11.432-14.43-11.432h-15.289V565.068z M927.998,578.07v-70.156h15.43v70.156H927.998z"/>
	<path d="M965.811,578.07v-70.156h15.431v47.58l37.866-47.58h14.43v70.156h-15.43v-47.723L980.24,578.07H965.811z M974.956,474.907
		h13.001c0,6.859,4.574,11.717,11.574,11.717c6.858,0,11.572-4.858,11.717-11.717h13.145c-0.144,14.431-10.43,23.576-24.719,23.576
		C985.242,498.483,975.1,489.338,974.956,474.907z"/>
	<path d="M1133.547,571.354c-6.432-5.858-10.146-13.288-11.434-22.289h-14.002v29.005h-15.43v-70.156h15.43v27.576h14.289
		c1.428-8.573,5.289-15.573,11.717-21.147c6.43-5.571,14.146-8.287,23.147-8.287c10.433,0,19.003,3.573,25.72,10.716
		c6.715,7.003,10.145,15.719,10.145,26.149c0,10.429-3.43,19.289-10.145,26.434c-6.717,7-15.287,10.574-25.72,10.574
		C1147.834,579.929,1139.977,577.07,1133.547,571.354z M1172.125,526.346c-3.857-4.429-8.715-6.715-14.86-6.715
		s-11.146,2.286-15.003,6.715c-3.857,4.43-5.715,10.001-5.715,16.576c0,6.714,1.857,12.288,5.715,16.716
		c3.856,4.431,8.857,6.716,15.003,6.716s11.003-2.285,14.86-6.716c3.859-4.429,5.715-10.002,5.715-16.716
		C1177.84,536.347,1175.984,530.776,1172.125,526.346z"/>
	<path d="M1211.048,578.07v-70.156h38.294c14.146,0,22.002,7.573,22.002,17.86c0,7.001-3.713,12.716-9.001,15.145
		c9.146,2.716,13.718,8.716,13.718,18.004c0,11.86-9.004,19.146-24.577,19.146H1211.048z M1226.479,535.919h19.146
		c6.716,0,10.572-3,10.572-7.715c0-5.286-3.57-7.858-10.572-7.858h-19.146V535.919z M1226.479,565.64h22.289
		c7.29,0,11.574-3.286,11.574-8.572c0-5.573-4.284-8.718-11.574-8.718h-22.289V565.64z"/>
	<path d="M1299.188,516.63c6.716-7.001,15.286-10.574,26.003-10.574c7.146,0,13.288,1.858,18.432,5.715
		c10.434,7.431,14.859,19.005,14.859,31.721v4.001h-53.723c1.858,11.859,12.144,18.86,26.434,18.86
		c8.143,0,15.576-2.144,22.576-6.287v13.003c-6.43,4.572-15.004,6.859-25.863,6.859s-20.004-3.429-27.577-10.289
		c-7.43-6.858-11.144-15.717-11.144-26.719C1289.186,532.491,1292.473,523.631,1299.188,516.63z M1342.91,535.777
		c-0.144-4.287-1.715-8.145-5.002-11.573c-3.285-3.43-7.717-5.145-13.432-5.145c-11.286,0-18.572,7.573-19.573,16.718H1342.91z"/>
	<path d="M1400.47,521.488l-0.283,10.146c-0.144,10.287-0.714,17.003-3.146,26.004c-3.144,12.431-10,20.147-24.145,20.718
		c-1.859,0-3.43-0.142-4.861-0.571v-13.288c1,0.285,2.145,0.429,3.146,0.429c10.142,0,13.715-9.717,14.145-34.15l0.428-22.861
		h56.582v70.156h-15.43v-56.583H1400.47z"/>
	<path d="M1464.646,578.07v-70.156h15.43v47.58l37.865-47.58h14.43v70.156h-15.43v-47.723l-37.865,47.723H1464.646z"/>
	<path d="M1619.555,516.772c6.429,7.145,9.571,15.861,9.571,26.292c0,10.287-3.143,19.005-9.571,26.147
		c-6.434,7.145-14.576,10.718-24.436,10.718c-10.859,0-19.146-3.858-25.005-11.432v38.15h-15.43v-98.732h15.43v9.573
		c5.858-7.573,14.146-11.432,25.005-11.432C1604.979,506.056,1613.121,509.629,1619.555,516.772z M1570.114,532.204v21.719
		c3.86,7.001,11.718,12.431,20.861,12.431c6.429,0,11.86-2.285,16.147-6.716c4.287-4.572,6.43-10.144,6.43-16.574
		c0-6.573-2.143-12.146-6.43-16.575c-4.287-4.572-9.719-6.858-16.147-6.858C1581.832,519.631,1573.975,524.917,1570.114,532.204z"/>
	<path d="M1646.981,578.07v-70.156h15.431v27.434h35.576v-27.434h15.434v70.156h-15.434v-29.148h-35.576v29.148H1646.981z"/>
	<path d="M1735.731,578.07v-70.156h15.431v21.291h17.005c17.145,0,28.29,9.573,28.29,24.433c0,7.001-2.428,12.859-7.289,17.575
		c-4.857,4.571-11.572,6.857-20.287,6.857H1735.731z M1751.162,565.068h15.289c9.002,0,14.431-4.429,14.431-11.43
		c0-7.288-5.284-11.432-14.431-11.432h-15.289V565.068z M1806.316,578.07v-70.156h15.431v70.156H1806.316z"/>
	<path d="M1844.13,578.07v-70.156h15.431v47.58l37.866-47.58h14.429v70.156h-15.43v-47.723l-37.867,47.723H1844.13z
		 M1853.274,474.907h13.001c0,6.859,4.574,11.717,11.574,11.717c6.859,0,11.573-4.858,11.717-11.717h13.145
		c-0.145,14.431-10.43,23.576-24.718,23.576C1863.561,498.483,1853.418,489.338,1853.274,474.907z"/>
</g>
</svg>
